<svg xmlns="http://www.w3.org/2000/svg" viewBox="0 0 378.09 113.8">
    <path
            d="M65.48,46.74a10.11,10.11,0,0,0-3.88-3.07,11.6,11.6,0,0,0-4.85-1.07,13,13,0,0,0-5.54,1.15A12.75,12.75,0,0,0,47,46.89a14.37,14.37,0,0,0-2.73,4.67,16.73,16.73,0,0,0-1,5.75,15.65,15.65,0,0,0,.92,5.41,13.36,13.36,0,0,0,2.65,4.5,12.51,12.51,0,0,0,4.24,3.06,13.7,13.7,0,0,0,5.67,1.13,11.3,11.3,0,0,0,5.47-1.28,11.7,11.7,0,0,0,4-3.58l4.14,3.12a17.32,17.32,0,0,1-1.43,1.61,14.41,14.41,0,0,1-2.71,2.09,19.21,19.21,0,0,1-4.06,1.84,17.27,17.27,0,0,1-5.49.79,17.85,17.85,0,0,1-7.74-1.63,18.68,18.68,0,0,1-9.58-10.29,18.88,18.88,0,0,1-1.27-6.77,21.21,21.21,0,0,1,1.38-7.74,18.4,18.4,0,0,1,3.85-6.13,17.36,17.36,0,0,1,6-4A20,20,0,0,1,56.9,38a18.76,18.76,0,0,1,7,1.38,13.18,13.18,0,0,1,5.64,4.24Z"
            fill="#fff"/>
    <polygon
            points="86.78 38.92 93.36 38.92 109.09 75.08 100.11 75.08 96.99 67.42 82.94 67.42 79.93 75.08 71.15 75.08 86.78 38.92"
            fill="#fff"/>
    <path
            d="M119.92,68.34h7.15a9.22,9.22,0,0,0,1.87-.2,5,5,0,0,0,1.71-.72,4.16,4.16,0,0,0,1.25-1.32,3.9,3.9,0,0,0,.48-2,3.19,3.19,0,0,0-.63-2.06,4.21,4.21,0,0,0-1.61-1.21,8.32,8.32,0,0,0-2.1-.56,15.8,15.8,0,0,0-2.09-.15h-6Zm0-15h5.77a7.94,7.94,0,0,0,1.82-.21,4.74,4.74,0,0,0,1.6-.66,3.48,3.48,0,0,0,1.15-1.23,3.66,3.66,0,0,0,.44-1.84,3.28,3.28,0,0,0-.49-1.86A3.36,3.36,0,0,0,129,46.43a6.08,6.08,0,0,0-1.73-.59,10.41,10.41,0,0,0-1.89-.18h-5.42Zm-8-14.46h13.49a32.79,32.79,0,0,1,4.72.34,12.94,12.94,0,0,1,4.27,1.32,8.13,8.13,0,0,1,3.06,2.79,8.54,8.54,0,0,1,1.18,4.75A7.6,7.6,0,0,1,137,53.2a9.48,9.48,0,0,1-4.53,2.88v.11a10.37,10.37,0,0,1,3.25,1,8.91,8.91,0,0,1,2.5,1.89,8.16,8.16,0,0,1,1.61,2.68,9.52,9.52,0,0,1,.56,3.27,8.77,8.77,0,0,1-1.22,4.78A9.75,9.75,0,0,1,136,72.89a14,14,0,0,1-4.37,1.68,23.37,23.37,0,0,1-4.82.51H112Z"
            fill="#fff"/>
    <path
            d="M170.33,46.74a10.18,10.18,0,0,0-3.88-3.07,11.68,11.68,0,0,0-4.86-1.07,12.73,12.73,0,0,0-9.78,4.29,14.55,14.55,0,0,0-2.73,4.67,16.73,16.73,0,0,0-1,5.75,15.89,15.89,0,0,0,.92,5.41,13.52,13.52,0,0,0,2.65,4.5,12.61,12.61,0,0,0,4.24,3.06,13.7,13.7,0,0,0,5.67,1.13,11.3,11.3,0,0,0,5.47-1.28,11.7,11.7,0,0,0,4-3.58l4.14,3.12a15.93,15.93,0,0,1-1.43,1.61A13.78,13.78,0,0,1,171,73.37,19,19,0,0,1,167,75.21a17.27,17.27,0,0,1-5.49.79,17.85,17.85,0,0,1-7.74-1.63,18.83,18.83,0,0,1-5.87-4.29,18.64,18.64,0,0,1-3.7-6,18.89,18.89,0,0,1-1.28-6.77,21.21,21.21,0,0,1,1.38-7.74,18.26,18.26,0,0,1,3.86-6.13,17.27,17.27,0,0,1,6-4A19.94,19.94,0,0,1,161.75,38a18.75,18.75,0,0,1,7,1.38,13.12,13.12,0,0,1,5.64,4.24Z"
            fill="#fff"/>
    <polygon
            points="179.06 38.92 183.96 38.92 183.96 53.94 202.71 53.94 202.71 38.92 207.61 38.92 207.61 75.08 202.71 75.08 202.71 58.54 183.96 58.54 183.96 75.08 179.06 75.08 179.06 38.92"
            fill="#fff"/>
    <path
            d="M236.27,61.86l-6.75-16.6h-.1l-6.84,16.6Zm-8.79-22.94h4.44L247.4,75.08h-5.72l-3.63-8.93H220.84l-3.57,8.93h-5.72Z"
            fill="#fff"/>
    <path
            d="M256.24,54.86h6.43a18,18,0,0,0,2.84-.23,8.1,8.1,0,0,0,2.5-.84A4.61,4.61,0,0,0,269.77,52a5.93,5.93,0,0,0,.66-3,5.94,5.94,0,0,0-.66-3A4.51,4.51,0,0,0,268,44.29a7.85,7.85,0,0,0-2.5-.85,18,18,0,0,0-2.84-.23h-6.43Zm-4.91-15.94h12.72a14.88,14.88,0,0,1,5.72.95,9.73,9.73,0,0,1,3.55,2.4,8.14,8.14,0,0,1,1.81,3.27,12.89,12.89,0,0,1,.51,3.5,9.28,9.28,0,0,1-.61,3.34,9.64,9.64,0,0,1-1.76,2.91,10.13,10.13,0,0,1-2.81,2.2,10,10,0,0,1-3.7,1.1L277,75.08h-6.13L261.7,59.15h-5.46V75.08h-4.91Z"
            fill="#fff"/>
    <path
            d="M311.55,54.86V72.68a16.46,16.46,0,0,1-3,1.43,33,33,0,0,1-3.5,1,30.44,30.44,0,0,1-3.68.64,33.78,33.78,0,0,1-3.5.2,20.82,20.82,0,0,1-8.2-1.53,18,18,0,0,1-6.08-4.14,17.61,17.61,0,0,1-3.77-6A20.38,20.38,0,0,1,278.5,57a19.71,19.71,0,0,1,1.41-7.5,18.39,18.39,0,0,1,3.88-6,17.69,17.69,0,0,1,5.95-4A19.48,19.48,0,0,1,297.35,38a22.59,22.59,0,0,1,8.17,1.25,15.17,15.17,0,0,1,5.31,3.45l-3.47,3.73a12.83,12.83,0,0,0-4.75-3,16.42,16.42,0,0,0-5.26-.84,13.15,13.15,0,0,0-9.91,4.24,13.7,13.7,0,0,0-2.76,4.57,16.18,16.18,0,0,0-1,5.59,15.06,15.06,0,0,0,1.07,5.7,14.21,14.21,0,0,0,3,4.57,13.71,13.71,0,0,0,4.44,3,14,14,0,0,0,5.57,1.1,24.38,24.38,0,0,0,4.93-.49,13.81,13.81,0,0,0,4-1.4V59.46h-8v-4.6Z"
            fill="#fff"/>
    <polygon
            points="315.89 38.92 339.23 38.92 339.23 43.52 320.8 43.52 320.8 54.3 337.95 54.3 337.95 58.89 320.8 58.89 320.8 70.49 340.15 70.49 340.15 75.08 315.89 75.08 315.89 38.92"
            fill="#fff"/>
    <polygon style="fill-opacity:1" points="106.42 54.38 90.15 48.02 90.15 60.81 106.42 54.38"
             fill="#00aba2"/>
</svg>